<svg width="99" height="21" viewBox="0 0 99 21" fill="none" xmlns="http://www.w3.org/2000/svg">
<path d="M12.87 12.72C12.342 14.37 10.89 16.02 8.36 16.02C5.478 16.02 3.3 13.82 3.3 10.3C3.3 6.78 5.478 4.58 8.36 4.58C10.318 4.58 12.1 5.68 12.87 7.77L15.29 7.77C14.652 5.02 12.21 2.38 8.36 2.38C4.312 2.38 0.99 5.57 0.99 10.3C0.99 15.03 4.312 18.22 8.36 18.22C12.518 18.22 14.762 15.14 15.29 12.72H12.87ZM24.4303 18.22C28.4783 18.22 31.8003 15.03 31.8003 10.3C31.8003 5.57 28.4783 2.38 24.4303 2.38C20.3823 2.38 17.0603 5.57 17.0603 10.3C17.0603 15.03 20.3823 18.22 24.4303 18.22ZM24.4303 4.58C27.3123 4.58 29.4903 6.78 29.4903 10.3C29.4903 13.82 27.3123 16.02 24.4303 16.02C21.5483 16.02 19.3703 13.82 19.3703 10.3C19.3703 6.78 21.5483 4.58 24.4303 4.58ZM34.4352 18H44.2252V15.8L36.7452 15.8V2.6L34.4352 2.6V18ZM52.1452 18.22C56.1932 18.22 59.5152 15.03 59.5152 10.3C59.5152 5.57 56.1932 2.38 52.1452 2.38C48.0972 2.38 44.7752 5.57 44.7752 10.3C44.7752 15.03 48.0972 18.22 52.1452 18.22ZM52.1452 4.58C55.0272 4.58 57.2052 6.78 57.2052 10.3C57.2052 13.82 55.0272 16.02 52.1452 16.02C49.2632 16.02 47.0852 13.82 47.0852 10.3C47.0852 6.78 49.2632 4.58 52.1452 4.58ZM62.15 18H64.46V12.5H65.56L71.06 18H74.03L68.53 12.5H69.08C71.61 12.5 73.59 10.542 73.59 7.55C73.59 4.558 71.61 2.6 69.08 2.6L62.15 2.6V18ZM64.46 10.3V4.8H68.97C70.202 4.8 71.28 5.9 71.28 7.55C71.28 9.2 70.202 10.3 68.97 10.3H64.46ZM75.6886 13.27C75.6886 16.02 77.8886 18.22 81.7386 18.22C85.5886 18.22 87.5686 16.24 87.5686 13.71C87.5686 11.268 86.1606 9.97 83.0586 9.42L80.6386 8.98C78.9666 8.65 78.3286 7.88 78.3286 6.89C78.3286 5.658 79.4286 4.58 81.5186 4.58C83.7186 4.58 85.0386 5.9 85.0386 7.33L87.3486 7.33C87.3486 4.58 85.3686 2.38 81.5186 2.38C78.1086 2.38 76.0186 4.36 76.0186 6.89C76.0186 9.002 77.2066 10.52 79.6486 10.96L82.6186 11.51C84.3786 11.84 85.2586 12.588 85.2586 13.71C85.2586 15.03 84.2686 16.02 81.7386 16.02C79.4506 16.02 77.9986 14.7 77.9986 13.27H75.6886Z" fill="#1F2020"/>
<circle cx="95" cy="6" r="4" fill="#1F2020"/>
</svg>
